<?xml version="1.0" encoding="utf-8"?>
<!-- Generator: Adobe Illustrator 21.0.0, SVG Export Plug-In . SVG Version: 6.00 Build 0)  -->
<svg version="1.1" id="Layer_1" xmlns="http://www.w3.org/2000/svg" xmlns:xlink="http://www.w3.org/1999/xlink" x="0px" y="0px"
	 viewBox="0 0 512 512" style="enable-background:new 0 0 512 512;" xml:space="preserve">
<g>
	<path d="M510.5,475.2L344.3,309C370,275.6,384,234.9,384,192c0-51.3-20-99.5-56.3-135.7C291.5,20,243.3,0,192,0S92.5,20,56.3,56.3
		C20,92.5,0,140.7,0,192c0,51.3,20,99.5,56.3,135.7C92.5,364,140.7,384,192,384c42.9,0,83.6-14,116.9-39.7l166.2,166.1
		c2,2,5.4,2.1,7.4,0l0,0l27.9-27.8C512.5,480.6,512.5,477.3,510.5,475.2L510.5,475.2z M293.4,293.4c-27.1,27.1-63.1,42-101.4,42
		s-74.2-14.9-101.4-42c-27.1-27.1-42-63.1-42-101.4s14.9-74.3,42-101.4c27.1-27.1,63.1-42,101.4-42s74.3,14.8,101.4,42
		c27.1,27.1,42,63.1,42,101.4S320.4,266.3,293.4,293.4z"/>
</g>
</svg>
