<?xml version="1.0" encoding="UTF-8"?>
<svg version="1.1" xmlns="http://www.w3.org/2000/svg" width="512" height="512">
<path d="M0 0 C2.61312557 2.32430242 5.16690506 4.70084345 7.70947266 7.10253906 C9.77900301 9.04827849 11.87503895 10.8838999 14.06884766 12.68457031 C17.89332886 15.9312522 21.03026536 19.66845124 24.25634766 23.49707031 C25.52865234 24.955 25.52865234 24.955 26.82666016 26.44238281 C68.08857423 73.92633155 84.19036429 134.59124442 80.11639404 196.62823486 C76.35130835 244.14364546 54.26837793 291.41950965 21.65087891 325.95019531 C19.70513948 328.01972566 17.86951807 330.11576161 16.06884766 332.30957031 C12.82216577 336.13405152 9.08496673 339.27098801 5.25634766 342.49707031 C4.28439453 343.34527344 3.31244141 344.19347656 2.31103516 345.06738281 C-45.17291358 386.32929689 -105.83782645 402.43108695 -167.87481689 398.3571167 C-215.3902275 394.59203101 -262.66609168 372.50910058 -297.19677734 339.89160156 C-299.2663077 337.94586214 -301.36234364 336.11024073 -303.55615234 334.30957031 C-307.38063355 331.06288842 -310.51757005 327.32568938 -313.74365234 323.49707031 C-314.59185547 322.52511719 -315.44005859 321.55316406 -316.31396484 320.55175781 C-357.57587892 273.06780908 -373.67766898 212.40289621 -369.60369873 150.36590576 C-365.83861304 102.85049516 -343.75568262 55.57463097 -311.13818359 21.04394531 C-309.19244417 18.97441496 -307.35682276 16.87837901 -305.55615234 14.68457031 C-302.30947045 10.8600891 -298.57227141 7.72315261 -294.74365234 4.49707031 C-293.77169922 3.64886719 -292.79974609 2.80066406 -291.79833984 1.92675781 C-222.88707505 -57.95475504 -120.39017454 -68.974567 0 0 Z M-215.11865234 58.93457031 C-227.16461486 73.43013107 -237.49610867 94.17399198 -236.74365234 113.49707031 C-230.58108689 114.92036553 -224.39242411 115.86589657 -218.11865234 116.62207031 C-217.06303101 116.75331299 -217.06303101 116.75331299 -215.98608398 116.88720703 C-211.20902607 117.44082666 -206.5524826 117.57271483 -201.74365234 117.49707031 C-201.60378906 116.94470703 -201.46392578 116.39234375 -201.31982422 115.82324219 C-198.80752382 106.07293163 -196.20238706 96.53091143 -191.68115234 87.49707031 C-191.36533203 86.85833984 -191.04951172 86.21960938 -190.72412109 85.56152344 C-188.59867363 81.5153335 -186.00205255 78.65946913 -182.74365234 75.49707031 C-182.74365234 74.83707031 -182.74365234 74.17707031 -182.74365234 73.49707031 C-182.16615234 73.22636719 -181.58865234 72.95566406 -180.99365234 72.67675781 C-178.73198237 71.49095168 -176.80319232 70.12771885 -174.74365234 68.62207031 C-162.28430872 60.19914214 -146.83153056 59.13911669 -132.26708984 60.92285156 C-117.43066305 63.86486807 -105.18374627 71.95668173 -96.43115234 84.18457031 C-88.89653363 96.21589759 -86.48183181 109.73669334 -89.40380859 123.63769531 C-90.31835902 126.40906025 -91.41176663 128.9017039 -92.74365234 131.49707031 C-93.16001953 132.33882813 -93.57638672 133.18058594 -94.00537109 134.04785156 C-101.03694128 146.5053578 -113.02974851 156.25040787 -123.74365234 165.49707031 C-127.11020596 168.46201738 -130.44057731 171.46153407 -133.74365234 174.49707031 C-134.50935547 175.19574219 -135.27505859 175.89441406 -136.06396484 176.61425781 C-153.3470044 193.05422227 -162.06155371 214.84064958 -162.74365234 238.49707031 C-162.77201172 239.4496875 -162.80037109 240.40230469 -162.82958984 241.38378906 C-162.88843915 245.41496629 -162.73248951 248.54172164 -161.74365234 252.49707031 C-150.85365234 252.49707031 -139.96365234 252.49707031 -128.74365234 252.49707031 C-128.64052734 249.83644531 -128.53740234 247.17582031 -128.43115234 244.43457031 C-127.15333114 220.12948414 -118.50619127 202.91011743 -100.61865234 186.68457031 C-98.99803354 185.28365262 -97.37308361 183.88772823 -95.74365234 182.49707031 C-93.25474098 180.27327351 -90.77930794 178.03524257 -88.30615234 175.79394531 C-86.57459102 174.2418751 -84.82385999 172.71096871 -83.05615234 171.20019531 C-65.63675893 156.0571999 -54.08542296 137.36425666 -51.93115234 114.12207031 C-50.90609001 93.21506976 -58.07765017 75.09300409 -71.74365234 59.49707031 C-72.33662109 58.80871094 -72.92958984 58.12035156 -73.54052734 57.41113281 C-88.66496765 41.05863966 -112.63857921 32.3740133 -134.47753906 31.37158203 C-164.59133557 30.41014364 -193.76141603 35.92812656 -215.11865234 58.93457031 Z M-163.33740234 282.55175781 C-166.80074561 287.342716 -168.05506207 292.71863233 -167.56787109 298.62988281 C-166.27301441 306.13743568 -162.64437506 312.1402331 -156.74365234 316.93457031 C-150.44307546 320.21612077 -144.81425897 321.4952736 -137.74365234 320.49707031 C-130.04962458 317.96256705 -124.55288308 313.72031682 -120.71630859 306.58691406 C-117.8658237 299.97956889 -117.66581384 293.57534348 -120.30615234 286.87207031 C-123.30848614 280.82511633 -128.08747153 275.28640763 -134.59912109 272.93457031 C-146.88764783 270.42762132 -155.52651728 272.93016757 -163.33740234 282.55175781 Z " fill="#000000" transform="translate(400.74365234375,82.5029296875)"/>
</svg>
